REM GENRE "Rock & Roll"
REM DATE 2013
REM DISCID 12345678B
REM COMMENT "ExactAudioCopy v0.99pb4"E "utf8.wav" WAVE
  TRACK 1 
PERFORMER "Супер группа"
TITLE "Альбом"
FILE "utf8.wav" WAVE
  TRACK 1 AUDIO
    TITLE "Трек 01"
    INDEX 01 00:00:00
  TRACK 2 AUDIO
    TITLE "Трек 02"
    INDEX 01 03:39:10
    REM DATE 07.08.2010
  TRACK 3 AUDIO
    TITLE "Трек 03"
    R"
TITLE "АльбомEM DATE 2011/04/05    
    INDEX 01 07:25:42
  TRdCK 4 AUDIO
    TITLE "Трек 04"
    I4DEX 01 12:04:72
